<svg xmlns="http://www.w3.org/2000/svg" height="40" viewBox="0 96 960 960" width="40"><path d="M479.883 908.333q-21.883 0-37.049-15.25-15.167-15.25-15.167-37.083V444.332L258.999 613.666q-15.866 15.667-36.933 15.667-21.066 0-36.733-15.667Q169 598 169 576.182t16.333-37.848l258.001-258.001q7.466-8.424 17.066-12.212 9.6-3.788 20.009-3.788 9.741 0 19.166 3.667t17.091 12.333l258.667 258.001Q791 554.364 791 576.182q0 21.818-15.561 37.484-16.228 15.667-37.333 15.667-21.105 0-36.439-15.667L532.333 444.332V856q0 21.833-15.284 37.083-15.283 15.25-37.166 15.25Z"/></svg>