<?xml version="1.0" encoding="iso-8859-1"?>
<!-- Generator: Adobe Illustrator 16.0.0, SVG Export Plug-In . SVG Version: 6.00 Build 0)  -->
<!DOCTYPE svg PUBLIC "-//W3C//DTD SVG 1.1//EN" "http://www.w3.org/Graphics/SVG/1.1/DTD/svg11.dtd">
<svg version="1.1" id="Layer_1" xmlns="http://www.w3.org/2000/svg" xmlns:xlink="http://www.w3.org/1999/xlink" x="0px" y="0px"
	 width="264.5px" height="151.125px" viewBox="0 0 264.5 151.125" style="enable-background:new 0 0 264.5 151.125;"
	 xml:space="preserve">
<rect x="-176.5" y="-137.875" style="display:none;fill:#6666B2;" width="640" height="480"/>
<g>
	<path style="fill:#000000;" d="M98.074,33.273c2.011-5.469,3.017-10.583,3.017-15.345s-1.733-8.824-5.199-12.192
		c-3.466-3.367-8.623-5.05-15.468-5.05c-15.105,0-31.706,8.322-49.806,24.963C20.221,35.257,11.941,46.667,5.779,59.877
		c-3.337,7.035-5.006,12.922-5.006,17.661c0,4.74,1.369,8.622,4.107,11.646c2.738,3.024,5.797,4.536,9.178,4.536
		c3.379,0,7.102-0.965,11.168-2.895c13.178,15.312,23.34,22.968,30.486,22.968c1.968,0,4.278-0.601,6.932-1.801
		c2.652-1.201,4.546-2.371,5.68-3.507c1.133-1.137,2-2.22,2.599-3.249c0.599-1.029,0.898-1.845,0.898-2.445
		c0-0.601-0.278-0.901-0.834-0.901c-0.215,0-0.428,0.15-0.642,0.451c-0.214,0.299-0.46,0.632-0.738,0.998
		c-0.279,0.363-0.825,0.696-1.637,0.997c-0.813,0.3-1.829,0.45-3.049,0.45c-1.219,0-2.514-0.344-3.883-1.029
		c-0.771-0.387-1.466-0.73-2.086-1.03c-0.621-0.3-1.423-0.804-2.407-1.512c-0.985-0.708-1.765-1.255-2.343-1.641
		c-0.578-0.386-1.434-1.029-2.567-1.93c-1.134-0.901-1.958-1.555-2.471-1.962c-0.514-0.408-1.402-1.126-2.664-2.155
		c-1.263-1.029-2.086-1.694-2.471-1.995c5.733-2.273,11.499-5.619,17.297-10.037c5.797-4.417,11.028-9.307,15.693-14.669
		c4.663-5.361,8.835-10.926,12.516-16.696C93.217,44.361,96.063,38.742,98.074,33.273z M75.354,46.462
		C70.261,53.69,63.65,61.356,55.521,69.463c-8.13,8.106-14.548,12.996-19.255,14.669c3.637-2.873,6.033-5.211,7.188-7.013
		c1.155-1.802,1.733-3.506,1.733-5.115c0-1.609-0.343-3.078-1.027-4.407c-0.257-0.472-0.536-0.943-0.834-1.416
		c-0.3-0.472-0.492-0.782-0.578-0.933c-0.086-0.15-0.247-0.225-0.481-0.225c-0.236,0-0.568,0.215-0.995,0.644
		c-4.151,4.761-8.976,8.589-14.473,11.484c-5.499,2.895-9.446,4.343-11.842,4.343c-1.113-0.901-1.668-2.466-1.668-4.697
		c0-4.847,2.32-11.42,6.963-19.72c4.643-8.3,10.494-15.924,17.554-22.872c7.06-6.949,14.538-12.535,22.432-16.76
		c7.895-4.224,15.606-6.337,23.138-6.337c4.107,0,6.162,1.888,6.162,5.662c0,2.059-1.091,5.716-3.273,10.97
		C84.083,32.995,80.445,39.235,75.354,46.462z"/>
	<path style="fill:#000000;" d="M170.89,33.112c2.46,0,4.823-1.233,7.092-3.7c2.268-2.466,3.402-4.922,3.402-7.367
		c0-1.158-0.344-2.059-1.027-2.702c-0.685-0.644-1.604-0.965-2.76-0.965c-2.61,0-4.996,1.169-7.156,3.507
		c-2.161,2.338-3.241,4.793-3.241,7.367C167.199,31.825,168.429,33.112,170.89,33.112z"/>
	<path style="fill:#000000;" d="M209.469,71.563c3.599-3.588,4.776-8.833,7.601-13.938c4.621-8.321,9.242-16.127,13.863-23.419
		l-2.439,0.321c-4.964,0.558-7.853,0.836-8.664,0.836h-0.578c-1.241,0-2.438-0.246-3.594-0.74c-1.155-0.493-1.733-1.104-1.733-1.833
		c0-0.729,0.31-1.437,0.931-2.124c0.62-0.686,0.995-1.222,1.123-1.608c0.299-0.943,1.422-1.994,3.37-3.152
		c1.946-1.158,3.411-1.77,4.396-1.833c0.983-0.064,1.936-0.118,2.855-0.161c0.92-0.042,1.947-0.085,3.081-0.128
		c1.134-0.042,2-0.085,2.6-0.129l5.776-0.257c3.594-5.404,6.065-8.879,7.413-10.423s2.128-2.391,2.343-2.542
		c0.214-0.149,0.642-0.225,1.283-0.225l3.017-0.386l2.632,0.643c0.385,0,0.728,0.193,1.027,0.579
		c0.299,0.386,0.449,0.751,0.449,1.094c0,0.344-0.449,1.266-1.349,2.767c-0.898,1.502-1.957,3.207-3.177,5.115
		c-1.22,1.909-1.872,2.95-1.957,3.121c3.337-0.257,5.701-0.386,7.092-0.386c1.39,0,2.343,0.097,2.856,0.29
		c0.513,0.193,1.101,0.73,1.765,1.608c0.663,0.88,1.272,1.544,1.829,1.995c0.556,0.45,0.835,1.126,0.835,2.027
		c0,0.9-0.546,1.663-1.637,2.284c-1.092,0.623-2.258,0.998-3.498,1.126c-9.928,0.987-15.404,1.502-16.431,1.544
		c-3.466,5.319-8.313,13.607-14.538,24.867s-9.531,18.304-9.916,21.135c-0.172,1.287-0.257,2.338-0.257,3.152
		c0,1.673,0.877,2.509,2.632,2.509c1.754,0,3.7-0.676,5.841-2.027c2.139-1.351,4.107-2.82,5.904-4.407
		c4.792-4.289,7.359-6.434,7.702-6.434c1.112,0,1.669,1.93,1.669,5.791c0,2.102-0.963,3.989-2.889,5.662
		c-4.322,3.732-7.958,6.542-10.911,8.428c-2.952,1.887-5.904,2.831-8.857,2.831c-0.642,0-1.241-0.064-1.797-0.193
		c-3.424-0.644-5.937-1.898-7.541-3.764c-1.582-1.84-2.371-4.317-2.372-7.429c-0.102,0.086-0.184,0.167-0.292,0.255
		c-9.157,7.463-17.821,11.195-25.994,11.195c-4.364,0-7.852-0.601-10.461-1.802c-2.727-1.245-4.65-2.877-5.825-4.872
		c-1.227,1.033-2.57,1.987-4.06,2.845c-4.579,2.638-8.558,3.957-11.938,3.957c-3.381,0-6.29-1.137-8.729-3.41
		c-1.327-1.236-2.28-2.486-2.885-3.749c-0.589,0.52-1.202,1.047-1.865,1.593c-4.194,3.452-8.173,5.179-11.938,5.179
		c-2.311,0-4.451-0.698-6.418-2.091c-1.969-1.393-2.953-3.828-2.953-7.302s0.92-6.884,2.76-10.23
		c-10.612,13.34-18.934,20.009-24.967,20.009c-2.397,0-4.333-0.858-5.809-2.573c-1.476-1.715-2.214-3.484-2.214-5.308
		c0-1.823,0.257-3.709,0.77-5.662c0.514-1.951,1.059-3.7,1.637-5.244s1.433-3.452,2.567-5.726c1.133-2.273,1.979-3.925,2.535-4.954
		c0.556-1.029,1.444-2.583,2.664-4.665c1.22-2.08,2.824-4.879,4.814-8.396c1.99-3.517,3.636-6.123,4.942-7.817
		c1.305-1.694,2.577-2.551,3.819-2.573c1.241-0.021,2.332,0.482,3.273,1.512c0.94,1.029,1.412,1.866,1.412,2.509
		s-1.434,3.539-4.3,8.686c-8.472,15.356-12.708,24.299-12.708,26.829c0,0.644,0.235,0.965,0.706,0.965
		c2.054,0,7.167-4.46,15.34-13.382c8.172-8.921,12.901-14.637,14.185-17.146s2.535-4.621,3.754-6.337
		c1.22-1.715,2.128-2.767,2.728-3.152c1.839-1.2,4.214-1.844,7.124-1.93c0.47,0,0.834,0.022,1.091,0.064
		c0.257,0.043,0.556,0.408,0.898,1.094c0.342,0.687,0.514,1.222,0.514,1.608c-0.385,1.201-2.086,4.397-5.103,9.586
		c-3.017,5.19-4.697,8.128-5.039,8.814c-5.049,10.466-7.574,17.286-7.574,20.459c0,1.801,0.684,2.702,2.054,2.702
		c2.481-0.343,5.477-2.337,8.985-5.983c1.284-1.329,2.556-2.68,3.819-4.053c1.042-1.133,1.906-2.77,2.292-3.129
		c2.063-3.874,3.957-6.585,6.02-9.932c2.353-3.817,3.529-5.887,3.529-6.208s-0.438-0.954-1.315-1.898
		c-0.878-0.943-1.315-1.641-1.315-2.091c0-0.451,0.887-1.63,2.663-3.539c1.775-1.908,3.937-3.796,6.482-5.662
		s4.493-2.799,5.841-2.799s2.557,0.602,3.626,1.802c1.069,1.201,1.604,2.295,1.604,3.281c0,0.987-5.092,10.273-15.275,27.858
		c-0.128,0.257-0.481,0.826-1.059,1.705c-0.578,0.879-1.027,1.608-1.348,2.188c-0.321,0.579-0.696,1.277-1.123,2.091
		c-0.856,1.716-1.284,3.153-1.284,4.311c0,1.458,0.984,2.188,2.952,2.188s4.012-0.676,6.13-2.027s3.768-2.642,5.569-4.299
		c6.813-5.546,10.834-8.369,13.012-9.18c-1.627-0.729-2.675-1.662-3.146-2.799c-0.471-1.136-0.706-2.959-0.706-5.469
		c0-2.509,1.166-5.168,3.498-7.978c2.332-2.809,5.188-5.115,8.568-6.916c7.53-4.075,14.249-6.112,20.153-6.112
		c1.412,0,2.846,0.344,4.301,1.029c1.454,0.687,2.182,1.652,2.182,2.896c0,2.831-1.145,5.319-3.434,7.463
		c-2.289,2.146-4.889,3.217-7.798,3.217c-0.941,0-1.563-0.225-1.861-0.676c-0.3-0.45-0.449-1.04-0.449-1.769
		c0-0.729,0.085-1.437,0.257-2.124c-1.541,0.515-3.253,1.309-5.135,2.381c-1.884,1.072-4.194,2.66-6.932,4.761
		c-2.739,2.102-4.108,3.667-4.108,4.697c0,0.344,0.503,0.515,1.509,0.515c1.005,0,2.557-0.354,4.653-1.062
		c2.096-0.708,3.562-1.062,4.396-1.062c0.834,0,1.38,0.043,1.637,0.129c0.556,0.3,1.155,0.955,1.797,1.962
		c0.642,1.008,0.963,1.802,0.963,2.381s-0.557,1.341-1.669,2.284c-1.113,0.944-2.375,1.663-3.787,2.156
		c-1.411,0.493-2.354,0.868-2.823,1.125c-9.029,5.062-13.543,8.536-13.543,10.423c0,3.346,2.845,5.019,8.536,5.019
		c3.637,0,7.295-1.158,10.976-3.474c3.123-1.973,6.013-3.779,8.516-5.816C202.094,77.094,207.847,73.18,209.469,71.563z"/>
</g>
<path style="fill:#000000;" d="M38.088,142.204h-2.672v-34.125h2.672V142.204z"/>
<path style="fill:#000000;" d="M58.165,116.845l0.07,4.031c0.75-1.375,1.707-2.469,2.871-3.281s2.488-1.219,3.973-1.219
	c4.422,0,6.688,2.945,6.797,8.836v16.992h-2.578v-16.711c-0.016-2.266-0.414-3.938-1.195-5.016s-2.008-1.617-3.68-1.617
	c-1.359,0-2.582,0.512-3.668,1.535s-1.91,2.426-2.473,4.207v17.602h-2.602v-25.359H58.165z"/>
<g>
	<path style="fill:#000000;" d="M237.556,98.125H88.444c-7.884,0-14.276,4.797-14.276,10.72v31.562
		c0,5.922,6.392,10.719,14.276,10.719h149.112c7.885,0,14.277-4.797,14.277-10.719v-31.562
		C251.833,102.922,245.44,98.125,237.556,98.125z M111.593,142.204h-6.867v-14.602H94.554v14.602h-6.891v-34.125h6.891v13.805
		h10.172v-13.805h6.867V142.204z M145.948,128.212c0,4.578-1.082,8.133-3.246,10.664s-5.168,3.797-9.012,3.797
		c-3.829,0-6.836-1.254-9.024-3.762s-3.297-6.02-3.328-10.535v-5.836c0-4.688,1.086-8.348,3.258-10.98s5.188-3.949,9.047-3.949
		c3.797,0,6.789,1.293,8.977,3.879s3.297,6.215,3.328,10.887V128.212z M177.889,131.704c-0.031,3.547-1.008,6.262-2.93,8.145
		s-4.68,2.824-8.273,2.824c-3.656,0-6.449-0.953-8.379-2.859s-2.895-4.664-2.895-8.273v-23.461h6.938v23.484
		c0,1.938,0.313,3.32,0.938,4.148s1.758,1.242,3.398,1.242s2.766-0.41,3.375-1.23s0.922-2.168,0.938-4.043v-23.602h6.891V131.704z
		 M195.767,119.739c0.75,0.758,2.078,1.543,3.984,2.355c3.328,1.203,5.746,2.68,7.254,4.43s2.262,3.977,2.262,6.68
		c0,2.969-0.945,5.289-2.836,6.961s-4.461,2.508-7.711,2.508c-2.203,0-4.211-0.453-6.023-1.359s-3.23-2.203-4.254-3.891
		s-1.535-3.68-1.535-5.977h6.914c0,1.969,0.383,3.398,1.148,4.289s2.016,1.336,3.75,1.336c2.406,0,3.609-1.273,3.609-3.82
		c0-1.391-0.355-2.441-1.066-3.152s-2.004-1.449-3.879-2.215c-3.422-1.297-5.883-2.816-7.383-4.559s-2.25-3.801-2.25-6.176
		c0-2.875,1.02-5.184,3.059-6.926s4.629-2.613,7.77-2.613c2.094,0,3.961,0.441,5.602,1.324s2.902,2.129,3.785,3.738
		s1.324,3.438,1.324,5.484h-6.867c0-1.594-0.34-2.809-1.02-3.645s-1.66-1.254-2.941-1.254c-1.203,0-2.141,0.355-2.813,1.066
		s-1.008,1.668-1.008,2.871C194.642,118.134,195.017,118.981,195.767,119.739z M238.23,142.204h-19.594v-34.125h19.547v5.742
		h-12.656v8.063h10.734v5.555h-10.734v9.047h12.703V142.204z"/>
	<path style="fill:#000000;" d="M133.644,113.376c-1.828,0-3.18,0.723-4.055,2.168s-1.328,3.645-1.359,6.598v6.07
		c0,2.984,0.445,5.184,1.336,6.598s2.266,2.121,4.125,2.121c1.797,0,3.133-0.691,4.008-2.074s1.32-3.527,1.336-6.434v-5.93
		c0-3.078-0.438-5.367-1.313-6.867S135.487,113.376,133.644,113.376z"/>
</g>
</svg>
